<?xml version="1.0" encoding="UTF-8" standalone="no"?>
<svg
   xmlns:dc="http://purl.org/dc/elements/1.1/"
   xmlns:cc="http://creativecommons.org/ns#"
   xmlns:rdf="http://www.w3.org/1999/02/22-rdf-syntax-ns#"
   xmlns:svg="http://www.w3.org/2000/svg"
   xmlns="http://www.w3.org/2000/svg"
   xmlns:sodipodi="http://sodipodi.sourceforge.net/DTD/sodipodi-0.dtd"
   xmlns:inkscape="http://www.inkscape.org/namespaces/inkscape"
   sodipodi:docname="CEQ_logo.svg"
   inkscape:version="1.0 (4035a4fb49, 2020-05-01)"
   id="svg169"
   version="1.1"
   viewBox="0 0 62.981831 38.364582"
   height="38.364582mm"
   width="62.981831mm">
  <defs
     id="defs163">
    <clipPath
       id="clipPath7471-6-2-4"
       clipPathUnits="userSpaceOnUse">
      <path
         id="path7469-2-5-6"
         d="m 258.148,86.611 c 1,0.164 2.001,0.326 3.001,0.486 v 0 l -3.001,1.598 z m -21.666,2.084 v -6.781 c 1.212,0.342 2.429,0.663 3.651,0.968 v 0 c 1.665,0.415 3.331,0.82 5.001,1.206 v 0 z" />
    </clipPath>
    <clipPath
       id="clipPath7505-2-3-3"
       clipPathUnits="userSpaceOnUse">
      <path
         id="path7503-9-2-1"
         d="m 258.148,86.71 v -9.551 l -13.126,6.989 c -2.344,-0.58 -4.679,-1.202 -7.015,-1.816 v 0 c -0.51,-0.133 -1.018,-0.272 -1.525,-0.414 v 0 -7.506 c 2.05,0.351 4.104,0.69 6.168,0.968 v 0 c 5.237,0.707 10.519,1.04 15.783,1.475 v 0 c 5.223,0.433 10.446,0.859 15.669,1.296 v 0 c 1.104,0.093 2.211,0.188 3.317,0.285 v 0 l -16.48,8.772 c -0.93,-0.164 -1.861,-0.334 -2.791,-0.498" />
    </clipPath>
    <clipPath
       id="clipPath7539-3-2-0"
       clipPathUnits="userSpaceOnUse">
      <path
         id="path7537-7-0-9"
         d="m 265.706,77.508 c -3.731,-0.309 -7.456,-0.677 -11.19,-0.96 v 0 c -3.735,-0.282 -7.47,-0.556 -11.196,-0.936 v 0 c -2.289,-0.232 -4.568,-0.524 -6.838,-0.884 v 0 -2.463 c 0.137,0.025 0.275,0.051 0.411,0.077 v 0 c 6.768,1.256 13.598,2.329 20.422,3.24 v 0 c 6.721,0.899 13.42,1.948 20.143,2.832 v 0 l -0.111,0.059 c -3.898,-0.056 -7.761,-0.644 -11.641,-0.965" />
    </clipPath>
    <clipPath
       id="clipPath7563-4-0-5"
       clipPathUnits="userSpaceOnUse">
      <path
         id="path7561-4-5-2"
         d="m 263.69,76.669 c -4.76,-0.566 -9.542,-0.934 -14.289,-1.61 v 0 c -4.332,-0.617 -8.635,-1.436 -12.919,-2.333 v 0 -4.447 h 0.001 c 1.107,0.205 2.215,0.408 3.324,0.611 v 0 c 3.795,0.691 7.603,1.236 11.43,1.689 v 0 l 6.911,3.68 v -2.92 c 6.888,0.755 13.771,1.541 20.649,2.378 v 0 l 3.742,1.992 -5.064,2.695 C 272.87,77.89 268.288,77.215 263.69,76.669" />
    </clipPath>
    <clipPath
       id="clipPath7589-5-6-7"
       clipPathUnits="userSpaceOnUse">
      <path
         id="path7587-4-5-0"
         d="m 265.969,72.357 c -2.604,-0.308 -5.212,-0.592 -7.821,-0.878 v 0 -8.756 l 20.901,11.129 h -10e-4 c -4.361,-0.483 -8.721,-0.981 -13.079,-1.495 m -26.222,-3.254 c -1.09,-0.181 -2.179,-0.376 -3.265,-0.581 v 0 -5.799 l 15.043,8.01 c -3.938,-0.464 -7.869,-0.98 -11.778,-1.63" />
    </clipPath>
    <clipPath
       id="clipPath7615-3-8-5"
       clipPathUnits="userSpaceOnUse">
      <path
         id="path7613-3-9-7"
         d="m 236.482,88.189 c 0.186,0.069 0.37,0.14 0.554,0.211 v 0 l -0.554,0.295 z" />
    </clipPath>
    <clipPath
       id="clipPath7641-7-9-2"
       clipPathUnits="userSpaceOnUse">
      <path
         id="path7639-7-9-4"
         d="M 258.148,77.159 236.482,88.695 V 62.723 l 21.666,11.536 V 62.723 l 24.391,12.986 -24.391,12.986 z" />
    </clipPath>
    <clipPath
       id="clipPath7649-4-0-2"
       clipPathUnits="userSpaceOnUse">
      <path
         id="path7647-5-5-2"
         d="m 225.496,83.371 v 0.605 c 0,0.133 -0.081,0.589 0,0.694 0.037,0.049 0.212,0.069 0.271,0.087 0.327,0.102 0.654,0.209 0.979,0.317 1.626,0.544 3.208,1.165 4.769,1.874 1.583,0.719 3.15,1.474 4.753,2.151 1.262,0.533 2.563,0.893 3.893,1.22 1.202,0.297 2.41,0.573 3.621,0.831 -1.984,-0.557 -3.956,-1.171 -5.9,-1.855 -3.018,-1.062 -5.81,-2.523 -8.61,-4.055 -1.232,-0.674 -2.488,-1.306 -3.776,-1.869" />
    </clipPath>
    <clipPath
       id="clipPath7657-1-0-1"
       clipPathUnits="userSpaceOnUse">
      <path
         id="path7655-9-6-9"
         d="m 225.415,91.15 h 18.366 v -7.779 h -18.366 z" />
    </clipPath>
    <clipPath
       clipPathUnits="userSpaceOnUse"
       id="clipPath7471-6-2-4-6">
      <path
         d="m 258.148,86.611 c 1,0.164 2.001,0.326 3.001,0.486 v 0 l -3.001,1.598 z m -21.666,2.084 v -6.781 c 1.212,0.342 2.429,0.663 3.651,0.968 v 0 c 1.665,0.415 3.331,0.82 5.001,1.206 v 0 z"
         id="path7469-2-5-6-5" />
    </clipPath>
    <clipPath
       clipPathUnits="userSpaceOnUse"
       id="clipPath7505-2-3-3-1">
      <path
         d="m 258.148,86.71 v -9.551 l -13.126,6.989 c -2.344,-0.58 -4.679,-1.202 -7.015,-1.816 v 0 c -0.51,-0.133 -1.018,-0.272 -1.525,-0.414 v 0 -7.506 c 2.05,0.351 4.104,0.69 6.168,0.968 v 0 c 5.237,0.707 10.519,1.04 15.783,1.475 v 0 c 5.223,0.433 10.446,0.859 15.669,1.296 v 0 c 1.104,0.093 2.211,0.188 3.317,0.285 v 0 l -16.48,8.772 c -0.93,-0.164 -1.861,-0.334 -2.791,-0.498"
         id="path7503-9-2-1-8" />
    </clipPath>
    <clipPath
       clipPathUnits="userSpaceOnUse"
       id="clipPath7539-3-2-0-8">
      <path
         d="m 265.706,77.508 c -3.731,-0.309 -7.456,-0.677 -11.19,-0.96 v 0 c -3.735,-0.282 -7.47,-0.556 -11.196,-0.936 v 0 c -2.289,-0.232 -4.568,-0.524 -6.838,-0.884 v 0 -2.463 c 0.137,0.025 0.275,0.051 0.411,0.077 v 0 c 6.768,1.256 13.598,2.329 20.422,3.24 v 0 c 6.721,0.899 13.42,1.948 20.143,2.832 v 0 l -0.111,0.059 c -3.898,-0.056 -7.761,-0.644 -11.641,-0.965"
         id="path7537-7-0-9-2" />
    </clipPath>
    <clipPath
       clipPathUnits="userSpaceOnUse"
       id="clipPath7563-4-0-5-3">
      <path
         d="m 263.69,76.669 c -4.76,-0.566 -9.542,-0.934 -14.289,-1.61 v 0 c -4.332,-0.617 -8.635,-1.436 -12.919,-2.333 v 0 -4.447 h 0.001 c 1.107,0.205 2.215,0.408 3.324,0.611 v 0 c 3.795,0.691 7.603,1.236 11.43,1.689 v 0 l 6.911,3.68 v -2.92 c 6.888,0.755 13.771,1.541 20.649,2.378 v 0 l 3.742,1.992 -5.064,2.695 C 272.87,77.89 268.288,77.215 263.69,76.669"
         id="path7561-4-5-2-2" />
    </clipPath>
    <clipPath
       clipPathUnits="userSpaceOnUse"
       id="clipPath7589-5-6-7-9">
      <path
         d="m 265.969,72.357 c -2.604,-0.308 -5.212,-0.592 -7.821,-0.878 v 0 -8.756 l 20.901,11.129 h -10e-4 c -4.361,-0.483 -8.721,-0.981 -13.079,-1.495 m -26.222,-3.254 c -1.09,-0.181 -2.179,-0.376 -3.265,-0.581 v 0 -5.799 l 15.043,8.01 c -3.938,-0.464 -7.869,-0.98 -11.778,-1.63"
         id="path7587-4-5-0-2" />
    </clipPath>
    <clipPath
       clipPathUnits="userSpaceOnUse"
       id="clipPath7615-3-8-5-9">
      <path
         d="m 236.482,88.189 c 0.186,0.069 0.37,0.14 0.554,0.211 v 0 l -0.554,0.295 z"
         id="path7613-3-9-7-5" />
    </clipPath>
    <clipPath
       clipPathUnits="userSpaceOnUse"
       id="clipPath7641-7-9-2-0">
      <path
         d="M 258.148,77.159 236.482,88.695 V 62.723 l 21.666,11.536 V 62.723 l 24.391,12.986 -24.391,12.986 z"
         id="path7639-7-9-4-2" />
    </clipPath>
    <clipPath
       clipPathUnits="userSpaceOnUse"
       id="clipPath7649-4-0-2-0">
      <path
         d="m 225.496,83.371 v 0.605 c 0,0.133 -0.081,0.589 0,0.694 0.037,0.049 0.212,0.069 0.271,0.087 0.327,0.102 0.654,0.209 0.979,0.317 1.626,0.544 3.208,1.165 4.769,1.874 1.583,0.719 3.15,1.474 4.753,2.151 1.262,0.533 2.563,0.893 3.893,1.22 1.202,0.297 2.41,0.573 3.621,0.831 -1.984,-0.557 -3.956,-1.171 -5.9,-1.855 -3.018,-1.062 -5.81,-2.523 -8.61,-4.055 -1.232,-0.674 -2.488,-1.306 -3.776,-1.869"
         id="path7647-5-5-2-9" />
    </clipPath>
    <clipPath
       clipPathUnits="userSpaceOnUse"
       id="clipPath7657-1-0-1-2">
      <path
         d="m 225.415,91.15 h 18.366 v -7.779 h -18.366 z"
         id="path7655-9-6-9-7" />
    </clipPath>
    <clipPath
       id="clipPath7471-6-2-4-6-7"
       clipPathUnits="userSpaceOnUse">
      <path
         id="path7469-2-5-6-5-2"
         d="m 258.148,86.611 c 1,0.164 2.001,0.326 3.001,0.486 v 0 l -3.001,1.598 z m -21.666,2.084 v -6.781 c 1.212,0.342 2.429,0.663 3.651,0.968 v 0 c 1.665,0.415 3.331,0.82 5.001,1.206 v 0 z" />
    </clipPath>
    <clipPath
       id="clipPath7505-2-3-3-1-6"
       clipPathUnits="userSpaceOnUse">
      <path
         id="path7503-9-2-1-8-8"
         d="m 258.148,86.71 v -9.551 l -13.126,6.989 c -2.344,-0.58 -4.679,-1.202 -7.015,-1.816 v 0 c -0.51,-0.133 -1.018,-0.272 -1.525,-0.414 v 0 -7.506 c 2.05,0.351 4.104,0.69 6.168,0.968 v 0 c 5.237,0.707 10.519,1.04 15.783,1.475 v 0 c 5.223,0.433 10.446,0.859 15.669,1.296 v 0 c 1.104,0.093 2.211,0.188 3.317,0.285 v 0 l -16.48,8.772 c -0.93,-0.164 -1.861,-0.334 -2.791,-0.498" />
    </clipPath>
    <clipPath
       id="clipPath7539-3-2-0-8-2"
       clipPathUnits="userSpaceOnUse">
      <path
         id="path7537-7-0-9-2-7"
         d="m 265.706,77.508 c -3.731,-0.309 -7.456,-0.677 -11.19,-0.96 v 0 c -3.735,-0.282 -7.47,-0.556 -11.196,-0.936 v 0 c -2.289,-0.232 -4.568,-0.524 -6.838,-0.884 v 0 -2.463 c 0.137,0.025 0.275,0.051 0.411,0.077 v 0 c 6.768,1.256 13.598,2.329 20.422,3.24 v 0 c 6.721,0.899 13.42,1.948 20.143,2.832 v 0 l -0.111,0.059 c -3.898,-0.056 -7.761,-0.644 -11.641,-0.965" />
    </clipPath>
    <clipPath
       id="clipPath7563-4-0-5-3-5"
       clipPathUnits="userSpaceOnUse">
      <path
         id="path7561-4-5-2-2-7"
         d="m 263.69,76.669 c -4.76,-0.566 -9.542,-0.934 -14.289,-1.61 v 0 c -4.332,-0.617 -8.635,-1.436 -12.919,-2.333 v 0 -4.447 h 0.001 c 1.107,0.205 2.215,0.408 3.324,0.611 v 0 c 3.795,0.691 7.603,1.236 11.43,1.689 v 0 l 6.911,3.68 v -2.92 c 6.888,0.755 13.771,1.541 20.649,2.378 v 0 l 3.742,1.992 -5.064,2.695 C 272.87,77.89 268.288,77.215 263.69,76.669" />
    </clipPath>
    <clipPath
       id="clipPath7589-5-6-7-9-3"
       clipPathUnits="userSpaceOnUse">
      <path
         id="path7587-4-5-0-2-1"
         d="m 265.969,72.357 c -2.604,-0.308 -5.212,-0.592 -7.821,-0.878 v 0 -8.756 l 20.901,11.129 h -10e-4 c -4.361,-0.483 -8.721,-0.981 -13.079,-1.495 m -26.222,-3.254 c -1.09,-0.181 -2.179,-0.376 -3.265,-0.581 v 0 -5.799 l 15.043,8.01 c -3.938,-0.464 -7.869,-0.98 -11.778,-1.63" />
    </clipPath>
    <clipPath
       id="clipPath7615-3-8-5-9-5"
       clipPathUnits="userSpaceOnUse">
      <path
         id="path7613-3-9-7-5-0"
         d="m 236.482,88.189 c 0.186,0.069 0.37,0.14 0.554,0.211 v 0 l -0.554,0.295 z" />
    </clipPath>
    <clipPath
       id="clipPath7641-7-9-2-0-9"
       clipPathUnits="userSpaceOnUse">
      <path
         id="path7639-7-9-4-2-6"
         d="M 258.148,77.159 236.482,88.695 V 62.723 l 21.666,11.536 V 62.723 l 24.391,12.986 -24.391,12.986 z" />
    </clipPath>
    <clipPath
       id="clipPath7649-4-0-2-0-8"
       clipPathUnits="userSpaceOnUse">
      <path
         id="path7647-5-5-2-9-4"
         d="m 225.496,83.371 v 0.605 c 0,0.133 -0.081,0.589 0,0.694 0.037,0.049 0.212,0.069 0.271,0.087 0.327,0.102 0.654,0.209 0.979,0.317 1.626,0.544 3.208,1.165 4.769,1.874 1.583,0.719 3.15,1.474 4.753,2.151 1.262,0.533 2.563,0.893 3.893,1.22 1.202,0.297 2.41,0.573 3.621,0.831 -1.984,-0.557 -3.956,-1.171 -5.9,-1.855 -3.018,-1.062 -5.81,-2.523 -8.61,-4.055 -1.232,-0.674 -2.488,-1.306 -3.776,-1.869" />
    </clipPath>
    <clipPath
       id="clipPath7657-1-0-1-2-2"
       clipPathUnits="userSpaceOnUse">
      <path
         id="path7655-9-6-9-7-9"
         d="m 225.415,91.15 h 18.366 v -7.779 h -18.366 z" />
    </clipPath>
    <clipPath
       clipPathUnits="userSpaceOnUse"
       id="clipPath7471-6-2-4-6-7-7">
      <path
         d="m 258.148,86.611 c 1,0.164 2.001,0.326 3.001,0.486 v 0 l -3.001,1.598 z m -21.666,2.084 v -6.781 c 1.212,0.342 2.429,0.663 3.651,0.968 v 0 c 1.665,0.415 3.331,0.82 5.001,1.206 v 0 z"
         id="path7469-2-5-6-5-2-8" />
    </clipPath>
    <clipPath
       clipPathUnits="userSpaceOnUse"
       id="clipPath7505-2-3-3-1-6-2">
      <path
         d="m 258.148,86.71 v -9.551 l -13.126,6.989 c -2.344,-0.58 -4.679,-1.202 -7.015,-1.816 v 0 c -0.51,-0.133 -1.018,-0.272 -1.525,-0.414 v 0 -7.506 c 2.05,0.351 4.104,0.69 6.168,0.968 v 0 c 5.237,0.707 10.519,1.04 15.783,1.475 v 0 c 5.223,0.433 10.446,0.859 15.669,1.296 v 0 c 1.104,0.093 2.211,0.188 3.317,0.285 v 0 l -16.48,8.772 c -0.93,-0.164 -1.861,-0.334 -2.791,-0.498"
         id="path7503-9-2-1-8-8-0" />
    </clipPath>
    <clipPath
       clipPathUnits="userSpaceOnUse"
       id="clipPath7539-3-2-0-8-2-0">
      <path
         d="m 265.706,77.508 c -3.731,-0.309 -7.456,-0.677 -11.19,-0.96 v 0 c -3.735,-0.282 -7.47,-0.556 -11.196,-0.936 v 0 c -2.289,-0.232 -4.568,-0.524 -6.838,-0.884 v 0 -2.463 c 0.137,0.025 0.275,0.051 0.411,0.077 v 0 c 6.768,1.256 13.598,2.329 20.422,3.24 v 0 c 6.721,0.899 13.42,1.948 20.143,2.832 v 0 l -0.111,0.059 c -3.898,-0.056 -7.761,-0.644 -11.641,-0.965"
         id="path7537-7-0-9-2-7-0" />
    </clipPath>
    <clipPath
       clipPathUnits="userSpaceOnUse"
       id="clipPath7563-4-0-5-3-5-2">
      <path
         d="m 263.69,76.669 c -4.76,-0.566 -9.542,-0.934 -14.289,-1.61 v 0 c -4.332,-0.617 -8.635,-1.436 -12.919,-2.333 v 0 -4.447 h 0.001 c 1.107,0.205 2.215,0.408 3.324,0.611 v 0 c 3.795,0.691 7.603,1.236 11.43,1.689 v 0 l 6.911,3.68 v -2.92 c 6.888,0.755 13.771,1.541 20.649,2.378 v 0 l 3.742,1.992 -5.064,2.695 C 272.87,77.89 268.288,77.215 263.69,76.669"
         id="path7561-4-5-2-2-7-5" />
    </clipPath>
    <clipPath
       clipPathUnits="userSpaceOnUse"
       id="clipPath7589-5-6-7-9-3-3">
      <path
         d="m 265.969,72.357 c -2.604,-0.308 -5.212,-0.592 -7.821,-0.878 v 0 -8.756 l 20.901,11.129 h -10e-4 c -4.361,-0.483 -8.721,-0.981 -13.079,-1.495 m -26.222,-3.254 c -1.09,-0.181 -2.179,-0.376 -3.265,-0.581 v 0 -5.799 l 15.043,8.01 c -3.938,-0.464 -7.869,-0.98 -11.778,-1.63"
         id="path7587-4-5-0-2-1-7" />
    </clipPath>
    <clipPath
       clipPathUnits="userSpaceOnUse"
       id="clipPath7615-3-8-5-9-5-1">
      <path
         d="m 236.482,88.189 c 0.186,0.069 0.37,0.14 0.554,0.211 v 0 l -0.554,0.295 z"
         id="path7613-3-9-7-5-0-4" />
    </clipPath>
    <clipPath
       clipPathUnits="userSpaceOnUse"
       id="clipPath7641-7-9-2-0-9-7">
      <path
         d="M 258.148,77.159 236.482,88.695 V 62.723 l 21.666,11.536 V 62.723 l 24.391,12.986 -24.391,12.986 z"
         id="path7639-7-9-4-2-6-8" />
    </clipPath>
    <clipPath
       clipPathUnits="userSpaceOnUse"
       id="clipPath7649-4-0-2-0-8-2">
      <path
         d="m 225.496,83.371 v 0.605 c 0,0.133 -0.081,0.589 0,0.694 0.037,0.049 0.212,0.069 0.271,0.087 0.327,0.102 0.654,0.209 0.979,0.317 1.626,0.544 3.208,1.165 4.769,1.874 1.583,0.719 3.15,1.474 4.753,2.151 1.262,0.533 2.563,0.893 3.893,1.22 1.202,0.297 2.41,0.573 3.621,0.831 -1.984,-0.557 -3.956,-1.171 -5.9,-1.855 -3.018,-1.062 -5.81,-2.523 -8.61,-4.055 -1.232,-0.674 -2.488,-1.306 -3.776,-1.869"
         id="path7647-5-5-2-9-4-2" />
    </clipPath>
    <clipPath
       clipPathUnits="userSpaceOnUse"
       id="clipPath7657-1-0-1-2-2-0">
      <path
         d="m 225.415,91.15 h 18.366 v -7.779 h -18.366 z"
         id="path7655-9-6-9-7-9-2" />
    </clipPath>
  </defs>
  <sodipodi:namedview
     inkscape:window-maximized="0"
     inkscape:window-y="30"
     inkscape:window-x="0"
     inkscape:window-height="738"
     inkscape:window-width="1366"
     showgrid="false"
     inkscape:document-rotation="0"
     inkscape:current-layer="layer1"
     inkscape:document-units="mm"
     inkscape:cy="71.090608"
     inkscape:cx="137.93344"
     inkscape:zoom="2"
     inkscape:pageshadow="2"
     inkscape:pageopacity="0.0"
     borderopacity="1.0"
     bordercolor="#666666"
     pagecolor="#ffffff"
     id="base" />
  <metadata
     id="metadata166">
    <rdf:RDF>
      <cc:Work
         rdf:about="">
        <dc:format>image/svg+xml</dc:format>
        <dc:type
           rdf:resource="http://purl.org/dc/dcmitype/StillImage" />
        <dc:title></dc:title>
      </cc:Work>
    </rdf:RDF>
  </metadata>
  <g
     transform="translate(-7.7344976,-18.582327)"
     id="layer1"
     inkscape:groupmode="layer"
     inkscape:label="Layer 1">
    <path
       id="path74"
       class="g4"
       d="m 13.607144,29.952725 c -2.116666,0 -3.4925,1.508125 -3.4925,3.413125 0,1.931459 1.190625,3.33375 3.33375,3.33375 0.635,0 1.322917,-0.132291 2.037292,-0.502707 -0.185208,-0.264584 -0.264583,-0.608543 -0.291042,-0.978959 -0.449791,0.264584 -0.9525,0.449791 -1.613958,0.449791 -1.349375,0 -2.169583,-0.9525 -2.169583,-2.328333 0,-1.296458 0.767291,-2.38125 2.2225,-2.38125 0.635,0 1.190625,0.15875 1.693333,0.423333 v -1.11125 c -0.396875,-0.185208 -1.005417,-0.3175 -1.719792,-0.3175 z"
       style="fill:#ffffff;stroke-width:0.264583" />
    <path
       id="path76"
       class="g4"
       d="m 30.355269,35.641268 c -0.15875,0 -0.343958,0 -0.529167,-0.07937 v -2.725214 c 0.132292,-0.05292 0.343959,-0.15875 0.714375,-0.15875 0.767292,0 1.243542,0.582083 1.243542,1.402291 0,0.926043 -0.555625,1.561043 -1.42875,1.561043 m -0.529167,-6.164793 h -1.190625 v 6.82625 c 0.396875,0.211668 0.926042,0.343959 1.534584,0.343959 1.613958,0 2.831041,-0.978959 2.831041,-2.619375 0,-1.508125 -1.005416,-2.328334 -2.275416,-2.328334 -0.370417,0 -0.635,0.05292 -0.899584,0.132292 z"
       style="fill:#ffffff;stroke-width:0.264583" />
    <path
       id="path78"
       class="g4"
       d="m 41.996936,35.694184 c -0.873125,0 -1.455209,-0.529166 -1.455209,-1.455209 0,-0.9525 0.608542,-1.508125 1.42875,-1.508125 0.238125,0 0.396875,0.02646 0.582084,0.05292 v 2.831042 c -0.15875,0.05292 -0.396875,0.07937 -0.555625,0.07937 m 1.74625,-6.164792 h -1.190625 v 2.275417 c -0.185209,-0.02646 -0.449792,-0.05292 -0.635,-0.05292 -1.508125,0 -2.592917,1.031875 -2.592917,2.513541 0,1.561042 1.137708,2.434167 2.672292,2.434167 0.582083,0 1.27,-0.132292 1.74625,-0.370417 z"
       style="fill:#ffffff;stroke-width:0.264583" />
    <path
       id="path80"
       class="g4"
       d="m 50.251936,33.709809 c 0,-0.555625 0.343958,-1.058334 0.926039,-1.058334 0.635,0 0.899588,0.529167 0.899588,1.058334 z m 0.9525,-1.957917 c -1.349375,0 -2.143125,1.058333 -2.143125,2.487083 0,1.27 0.714375,2.460625 2.407713,2.460625 0.582081,0 1.19062,-0.132291 1.693331,-0.449791 L 52.791936,35.4296 c -0.343961,0.185209 -0.714373,0.3175 -1.190623,0.3175 -0.79375,0 -1.296458,-0.47625 -1.349377,-1.190625 h 3.042708 v -0.291041 c 0,-1.561042 -0.767289,-2.513542 -2.090208,-2.513542 z"
       style="fill:#ffffff;stroke-width:0.264583" />
    <path
       id="path82"
       class="g4"
       d="m 17.575894,35.7471 c -0.423333,0 -0.714375,-0.238125 -0.714375,-0.635 0,-0.264582 0.105834,-0.449791 0.291042,-0.555625 0.15875,-0.07937 0.396875,-0.132291 0.687916,-0.15875 h 0.608542 v 0.978959 l 0.02646,0.05292 c -0.185208,0.132291 -0.47625,0.3175 -0.899583,0.3175 m 0.211667,-3.995208 c -0.661458,0 -1.27,0.15875 -1.825625,0.47625 l 0.370415,0.76729 c 0.343958,-0.185207 0.767291,-0.343957 1.243541,-0.343957 0.555625,0 0.926042,0.238125 0.926042,0.79375 v 0.15875 l -0.820208,0.02646 c -0.47625,0 -0.899584,0.07937 -1.217084,0.264584 -0.502708,0.238125 -0.79375,0.635 -0.79375,1.296458 0,0.899583 0.661459,1.481667 1.561042,1.481667 0.582083,0 1.005416,-0.238125 1.349375,-0.529167 h 0.105833 c 0.105833,0.132292 0.238125,0.211667 0.3175,0.238125 l 0.635,0.3175 0.02646,0.02646 v -3.254382 c 0,-1.137709 -0.608541,-1.719792 -1.878541,-1.719792 z"
       style="fill:#ffffff;stroke-width:0.264583" />
    <path
       id="path84"
       class="g4"
       d="m 20.565686,31.646059 h -0.02646 v 4.92125 h 1.190625 v -3.33375 c 0.370417,-0.291042 0.767292,-0.47625 1.137709,-0.47625 0.608541,0 0.687916,0.47625 0.687916,1.005416 v 2.804584 H 24.77256 V 33.418767 L 24.7461,33.233559 c 0.343959,-0.291042 0.740834,-0.47625 1.137709,-0.47625 0.608541,0 0.714375,0.449791 0.714375,1.005416 v 2.804584 h 1.190625 v -3.122084 c 0,-1.27 -0.740834,-1.719791 -1.5875,-1.719791 -0.529167,0 -1.11125,0.238125 -1.693334,0.740833 -0.211666,-0.47625 -0.661458,-0.740833 -1.243541,-0.740833 -0.582084,0 -1.137709,0.291041 -1.5875,0.661458 h -0.05292 c -0.132287,-0.264583 -0.317495,-0.370417 -0.423328,-0.423333 l -0.608542,-0.3175 z"
       style="fill:#ffffff;stroke-width:0.264583" />
    <path
       id="path86"
       class="g4"
       d="m 36.123186,31.77835 c -0.529167,0 -1.005417,0.291042 -1.296459,0.608542 l -0.105833,-0.529167 h -1.031875 v 4.736043 h 1.190625 v -3.333751 c 0.370417,-0.449792 0.740833,-0.582083 1.031875,-0.582083 0.423333,0 0.740833,0.264583 0.740833,0.264583 v -1.084792 c -0.185208,-0.05292 -0.343958,-0.07938 -0.529166,-0.07938 z"
       style="fill:#ffffff;stroke-width:0.264583" />
    <path
       id="path88"
       class="g4"
       d="m 38.557352,31.857725 h -1.190625 v 4.736043 h 1.190625 z m -0.608541,-2.196042 c -0.423334,0 -0.714375,0.3175 -0.714375,0.714376 0,0.423333 0.291041,0.714375 0.714375,0.714375 0.423333,0 0.740833,-0.3175 0.740833,-0.714375 0,-0.396876 -0.3175,-0.714376 -0.740833,-0.714376 z"
       style="fill:#ffffff;stroke-width:0.264583" />
    <path
       id="path90"
       class="g4"
       d="m 46.547769,37.943142 c -0.767292,0 -1.27,-0.291042 -1.27,-0.767292 0,-0.3175 0.211667,-0.502707 0.370417,-0.608541 0.635,0.238125 2.116666,0.105834 2.116666,0.767291 0,0.370417 -0.47625,0.608542 -1.217083,0.608542 m -0.07937,-3.730624 c -0.529166,0 -0.820208,-0.396875 -0.820208,-0.873126 0,-0.555625 0.343958,-0.873125 0.820208,-0.873125 0.529167,0 0.846667,0.423333 0.846667,0.873125 0,0.582083 -0.343958,0.873126 -0.846667,0.873126 m 2.566453,-2.645834 h -2.592916 c -1.27,0 -1.931459,0.873125 -1.931459,1.74625 0,0.608541 0.291042,1.164166 0.79375,1.455209 -0.370416,0.264582 -0.555625,0.608541 -0.555625,0.899582 0,0.238125 0.105834,0.449793 0.291042,0.582084 -0.47625,0.211666 -0.846667,0.608541 -0.846667,1.137709 0,0.820207 0.820209,1.375835 2.196042,1.375835 1.640417,0 2.513542,-0.68792 2.513542,-1.561044 0,-1.74625 -3.122084,-0.978959 -3.122084,-1.825625 0,-0.07937 0.05292,-0.185209 0.132292,-0.343959 0.15875,0.05292 0.370417,0.07937 0.582083,0.07937 1.137709,0 1.957917,-0.687917 1.957917,-1.74625 0,-0.370417 -0.132292,-0.714375 -0.343958,-1.005417 h 0.132291 c 0.396875,-0.02646 0.529167,-0.238125 0.582084,-0.343958 l 0.211666,-0.423332 z"
       style="fill:#ffffff;stroke-width:0.264583" />
    <path
       id="path96"
       class="g6"
       d="m 17.073186,44.425433 h -1.296458 c -0.635,0 -0.9525,0.42333 -0.9525,0.84667 0,0.3175 0.132291,0.60854 0.396875,0.74083 -0.185209,0.13229 -0.291042,0.3175 -0.291042,0.44979 0,0.13229 0.05292,0.23813 0.15875,0.29104 -0.238125,0.10584 -0.423333,0.3175 -0.423333,0.58209 0,0.39687 0.396875,0.68791 1.084791,0.68791 0.820209,0 1.27,-0.34395 1.27,-0.76729 0,-0.89958 -1.561041,-0.50271 -1.561041,-0.92604 0,-0.0529 0.02646,-0.10583 0.05292,-0.18521 0.07937,0.0265 0.185208,0.0529 0.291041,0.0529 0.582084,0 0.978959,-0.34396 0.978959,-0.87312 0,-0.18521 -0.05292,-0.37042 -0.15875,-0.50271 h 0.05292 c 0.211666,-0.0265 0.264582,-0.1323 0.291041,-0.18521 z m -1.27,1.32292 c -0.264583,0 -0.423333,-0.21167 -0.423333,-0.44979 0,-0.29105 0.185208,-0.42334 0.423333,-0.42334 0.264583,0 0.423333,0.21167 0.423333,0.42334 0,0.29104 -0.185208,0.44979 -0.423333,0.44979 m 0.02646,1.85208 c -0.370417,0 -0.635,-0.13229 -0.635,-0.37042 0,-0.15875 0.105833,-0.26458 0.185208,-0.3175 0.3175,0.1323 1.058334,0.0529 1.058334,0.39688 0,0.18521 -0.238125,0.29104 -0.608542,0.29104 z"
       style="fill:#4a4a49;stroke-width:0.264583" />
    <g
       id="g3062"
       transform="matrix(0.80949647,0,0,0.80949647,-45.224389,3.2309065)">
      <g
         style="fill:#4a4a49;fill-opacity:1"
         transform="matrix(0.26458333,0,0,0.26458333,59.415969,23.389169)"
         id="g1841">
        <path
           style="fill:#4a4a49;fill-opacity:1"
           class="st0"
           d="m 34.2,100.2 h 8.5 l -0.8,2.4 H 37 v 4 h 5 v 2.4 h -5 v 4.2 h 5.7 v 2.4 h -8.5 z"
           id="path1795" />
        <path
           style="fill:#4a4a49;fill-opacity:1"
           class="st0"
           d="m 44.4,104.5 h 2.4 l 0.3,1.2 c 1.2,-0.9 2.4,-1.5 3.8,-1.5 1.7,0 3.5,0.9 3.5,4 v 7.3 h -2.8 v -6.4 c 0,-1.4 -0.3,-2.4 -1.7,-2.4 -0.9,0 -1.9,0.5 -2.7,1.2 v 7.7 h -2.8 z"
           id="path1797" />
        <path
           style="fill:#4a4a49;fill-opacity:1"
           class="st0"
           d="m 60.5,118.7 c -1.8,0 -3,-0.7 -3,-1.8 0,-0.7 0.5,-1.2 0.9,-1.4 1.5,0.6 4.9,0.3 4.9,1.8 0,0.8 -1.1,1.4 -2.8,1.4 M 60.3,110 c -1.2,0 -1.9,-1 -1.9,-2.1 0,-1.3 0.8,-2.1 1.9,-2.1 1.2,0 2,1 2,2.1 0,1.4 -0.8,2.1 -2,2.1 m 6,-6.2 H 64.2 62 v 0 0 h -1.7 c -3,0 -4.5,2 -4.5,4.1 0,1.5 0.7,2.8 1.8,3.4 -0.9,0.6 -1.3,1.4 -1.3,2.1 0,0.6 0.3,1.1 0.7,1.4 -1.1,0.5 -2,1.4 -2,2.7 0,1.9 1.9,3.2 5.1,3.2 3.8,0 5.8,-1.6 5.8,-3.6 0,-4.1 -7.3,-2.3 -7.3,-4.3 0,-0.2 0.1,-0.5 0.3,-0.8 0.4,0.1 0.8,0.2 1.4,0.2 2.7,0 4.6,-1.6 4.6,-4.1 0,-0.9 -0.3,-1.7 -0.8,-2.3 h 0.3 c 0.9,-0.1 1.2,-0.6 1.3,-0.8 z"
           id="path1799" />
        <g
           style="fill:#4a4a49;fill-opacity:1"
           id="g1807">
          <path
             style="fill:#4a4a49;fill-opacity:1"
             class="st0"
             d="m 73.3,101.1 c 0,-0.9 0.7,-1.7 1.7,-1.7 1,0 1.7,0.7 1.7,1.7 0,0.9 -0.7,1.7 -1.7,1.7 -1,-0.1 -1.7,-0.8 -1.7,-1.7 z m 0.3,3.4 h 2.8 v 11 h -2.8 z"
             id="path1801" />
          <path
             style="fill:#4a4a49;fill-opacity:1"
             class="st0"
             d="m 78.6,112.7 c 0.8,0.5 1.9,0.9 3,0.9 1.1,0 1.9,-0.3 1.9,-1.2 0,-1.9 -5.2,-1.2 -5.2,-4.8 0,-2 1.6,-3.3 4.2,-3.3 1.2,0 2.3,0.2 3.2,0.5 v 2.4 c -0.9,-0.4 -2,-0.7 -3.1,-0.7 -0.9,0 -1.6,0.3 -1.6,1 0,1.7 5.2,1.1 5.2,4.9 0,2.4 -2.1,3.4 -4.5,3.4 -1.7,0 -3.1,-0.5 -4.1,-1.1 z"
             id="path1803" />
          <path
             style="fill:#4a4a49;fill-opacity:1"
             class="st0"
             d="m 87.5,99 h 2.8 v 6.7 c 1,-0.8 2.3,-1.5 3.7,-1.5 1.7,0 3.5,0.9 3.5,4 v 7.3 h -2.8 v -6.4 c 0,-1.4 -0.3,-2.4 -1.7,-2.4 -0.9,0 -1.9,0.5 -2.7,1.2 v 7.7 h -2.8 z"
             id="path1805" />
        </g>
        <g
           style="fill:#4a4a49;fill-opacity:1"
           id="g1811">
          <path
             style="fill:#4a4a49;fill-opacity:1"
             class="st0"
             d="m 71,113.3 c -0.5,0 -0.8,-0.2 -0.8,-1 V 99 h -2.8 v 14 c 0,1.7 0.9,2.7 2.8,2.7 0.5,0 1,-0.1 1.6,-0.2 l -0.1,-2.3 c -0.2,0.1 -0.6,0.1 -0.7,0.1 z"
             id="path1809" />
        </g>
        <path
           style="fill:#4a4a49;fill-opacity:1"
           class="st0"
           d="m 104.2,107.9 c 0,-4.7 3.2,-7.9 7.7,-7.9 4.5,0 7.7,3.2 7.7,7.9 0,4.3 -2.6,7.2 -6.5,7.7 0.8,0.9 1.9,1.4 3.1,1.4 0.6,0 1.2,-0.1 1.5,-0.3 l 0.7,2.1 c -0.7,0.3 -1.7,0.5 -2.5,0.5 -3,0 -4.9,-1.7 -6.4,-3.9 -3.1,-0.8 -5.3,-3.6 -5.3,-7.5 z m 12.5,0 c 0,-3.4 -1.8,-5.5 -4.8,-5.5 -2.8,0 -4.8,2 -4.8,5.5 0,3.5 1.9,5.5 4.8,5.5 2.9,0 4.8,-2 4.8,-5.5 z"
           id="path1813" />
        <path
           style="fill:#4a4a49;fill-opacity:1"
           class="st0"
           d="m 130.9,109.3 v 6.5 0 h -0.1 l -1.5,-0.7 c -0.2,-0.1 -0.5,-0.3 -0.8,-0.6 l -0.1,-0.1 h -0.2 c -0.8,0.7 -2,1.4 -3.4,1.4 -1.1,0 -2.6,-0.4 -3.3,-2.2 -0.3,-0.6 -0.4,-1.3 -0.4,-2.3 v -6.8 h 2.8 v 6.5 c 0,0.6 0.1,1 0.2,1.4 0.3,0.7 0.8,1 1.7,1 0.9,0 1.8,-0.4 2.3,-1 v -7.9 h 2.8 v 8.3"
           id="path1815" />
        <path
           style="fill:#4a4a49;fill-opacity:1"
           class="st0"
           d="m 136.7,113.6 c -1,0 -1.6,-0.6 -1.6,-1.5 0,-0.6 0.2,-1 0.7,-1.3 0.4,-0.2 0.9,-0.3 1.6,-0.4 h 1.4 v 2.3 0.1 c -0.4,0.3 -1.2,0.8 -2.1,0.8 m 0.5,-9.4 c -1.5,0 -3,0.4 -4.3,1.1 l 0.9,1.8 c 0.8,-0.4 1.8,-0.8 2.9,-0.8 1.3,0 2.1,0.6 2.1,1.8 v 0.4 l -1.9,0.1 c -1.1,0 -2.1,0.2 -2.8,0.6 -1.1,0.6 -1.9,1.5 -1.9,3 0,2.1 1.6,3.5 3.7,3.5 1.4,0 2.4,-0.6 3.2,-1.3 h 0.2 c 0.3,0.3 0.6,0.5 0.8,0.6 l 1.5,0.7 h 0.1 v 0 -6.5 0 -1.1 c -0.1,-2.5 -1.6,-3.9 -4.5,-3.9"
           id="path1817" />
        <path
           style="fill:#4a4a49;fill-opacity:1"
           class="st0"
           d="m 181.8,113.6 c -1,0 -1.6,-0.6 -1.6,-1.5 0,-0.6 0.2,-1 0.7,-1.3 0.4,-0.2 0.9,-0.3 1.6,-0.4 h 1.4 v 2.3 0.1 c -0.4,0.3 -1.1,0.8 -2.1,0.8 m 0.5,-9.4 c -1.5,0 -3,0.4 -4.3,1.1 l 0.9,1.8 c 0.8,-0.4 1.8,-0.8 2.9,-0.8 1.3,0 2.1,0.6 2.1,1.8 v 0.4 l -1.9,0.1 c -1.1,0 -2.1,0.2 -2.8,0.6 -1.1,0.6 -1.9,1.5 -1.9,3 0,2.1 1.6,3.5 3.7,3.5 1.4,0 2.4,-0.6 3.2,-1.3 h 0.2 c 0.3,0.3 0.6,0.5 0.8,0.6 l 1.5,0.7 h 0.1 v 0 -7.6 c -0.1,-2.5 -1.6,-3.9 -4.5,-3.9"
           id="path1819" />
        <g
           style="fill:#4a4a49;fill-opacity:1"
           id="g1823">
          <path
             style="fill:#4a4a49;fill-opacity:1"
             class="st0"
             d="m 147,113.3 c -0.5,0 -0.8,-0.2 -0.8,-1 V 99 h -2.8 v 14 c 0,1.7 0.9,2.7 2.8,2.7 0.5,0 1,-0.1 1.5,-0.2 v -2.3 c -0.3,0 -0.6,0.1 -0.7,0.1 z"
             id="path1821" />
        </g>
        <path
           style="fill:#4a4a49;fill-opacity:1"
           class="st0"
           d="m 149,101.1 c 0,-0.9 0.7,-1.7 1.7,-1.7 1,0 1.7,0.7 1.7,1.7 0,0.9 -0.7,1.7 -1.7,1.7 -1,0 -1.7,-0.8 -1.7,-1.7 z m 0.3,3.4 h 2.8 v 11 h -2.8 z"
           id="path1825" />
        <path
           style="fill:#4a4a49;fill-opacity:1"
           class="st0"
           d="m 155.4,106.7 h -1.6 v -2.2 h 1.6 V 103 c 0,-2.6 1.5,-3.9 3.8,-3.9 0.7,0 1.6,0.1 2.3,0.5 l -0.6,2.2 c -0.5,-0.2 -0.9,-0.3 -1.4,-0.3 -0.9,0 -1.4,0.6 -1.4,1.5 v 1.6 h 2.9 l -0.7,2.2 h -2.2 v 8.9 h -2.8 v -9 z m 6.9,-5.6 c 0,-0.9 0.7,-1.7 1.7,-1.7 1,0 1.7,0.7 1.7,1.7 0,0.9 -0.7,1.7 -1.7,1.7 -0.9,-0.1 -1.7,-0.8 -1.7,-1.7 z m 0.3,3.4 h 2.8 v 11 h -2.8 z"
           id="path1827" />
        <path
           style="fill:#4a4a49;fill-opacity:1"
           class="st0"
           d="m 189.4,112.8 v -6.1 h -2 v -2.2 h 2 v -2.6 l 2.8,-0.8 v 3.4 h 3.3 l -0.7,2.2 h -2.7 v 5.5 c 0,1 0.3,1.4 1.1,1.4 0.7,0 1.3,-0.3 1.7,-0.5 l 0.8,1.9 c -0.8,0.5 -2.1,0.9 -3.2,0.9 -1.9,-0.1 -3.1,-1.3 -3.1,-3.1 z"
           id="path1829" />
        <path
           style="fill:#4a4a49;fill-opacity:1"
           class="st0"
           d="m 197.1,101.1 c 0,-0.9 0.7,-1.7 1.7,-1.7 1,0 1.7,0.7 1.7,1.7 0,0.9 -0.7,1.7 -1.7,1.7 -0.9,-0.1 -1.7,-0.8 -1.7,-1.7 z m 0.3,3.4 h 2.8 v 11 h -2.8 z"
           id="path1831" />
        <path
           style="fill:#4a4a49;fill-opacity:1"
           class="st0"
           d="m 201.8,110 c 0,-3.3 2.2,-5.8 5.5,-5.8 3.3,0 5.5,2.4 5.5,5.8 0,3.3 -2.2,5.8 -5.5,5.8 -3.3,0 -5.5,-2.5 -5.5,-5.8 z m 8.1,0 c 0,-2 -0.9,-3.5 -2.7,-3.5 -1.7,0 -2.7,1.5 -2.7,3.5 0,2 0.9,3.5 2.7,3.5 1.8,0 2.7,-1.5 2.7,-3.5 z"
           id="path1833" />
        <path
           style="fill:#4a4a49;fill-opacity:1"
           class="st0"
           d="m 214.3,104.5 h 2.4 l 0.3,1.2 c 1.2,-0.9 2.4,-1.5 3.8,-1.5 1.7,0 3.5,0.9 3.5,4 v 7.3 h -2.8 v -6.4 c 0,-1.4 -0.3,-2.4 -1.7,-2.4 -0.9,0 -1.9,0.5 -2.7,1.2 v 7.7 h -2.8 z"
           id="path1835" />
        <path
           style="fill:#4a4a49;fill-opacity:1"
           class="st0"
           d="m 226.6,112.7 c 0.8,0.5 1.9,0.9 3,0.9 1.1,0 1.9,-0.3 1.9,-1.2 0,-1.9 -5.2,-1.2 -5.2,-4.8 0,-2 1.6,-3.3 4.2,-3.3 1.2,0 2.3,0.2 3.2,0.5 v 2.4 c -0.9,-0.4 -2,-0.7 -3.1,-0.7 -0.9,0 -1.6,0.3 -1.6,1 0,1.7 5.2,1.1 5.2,4.9 0,2.4 -2.1,3.4 -4.5,3.4 -1.7,0 -3.1,-0.5 -4.1,-1.1 z"
           id="path1837" />
        <path
           style="fill:#4a4a49;fill-opacity:1"
           class="st0"
           d="m 175.9,112.7 -0.2,0.1 c -0.8,0.4 -1.5,0.7 -2.6,0.7 -1.9,0 -3.1,-1.2 -3.1,-3.5 0,-2 1.2,-3.6 3.3,-3.6 1.1,0 1.9,0.3 2.7,0.9 V 105 c -0.6,-0.4 -1.6,-0.7 -3,-0.7 -3.3,0 -5.8,2.4 -5.8,5.9 0,3.2 2,5.7 5.6,5.7 1.5,0 2.9,-0.5 3.8,-1.1 -0.1,-0.1 -0.5,-0.7 -0.7,-2.1 z"
           id="path1839" />
      </g>
      <polygon
         transform="matrix(0.26458333,0,0,0.26458333,59.415969,23.389169)"
         style="fill:#e1523d;fill-opacity:1"
         class="st1"
         points="22.7,25.2 22.7,84.7 233.8,84.7 275.2,54.9 233.8,25.2 "
         id="polygon1843" />
      <g
         style="fill:#ffffff"
         transform="matrix(0.26458333,0,0,0.26458333,59.415969,23.389169)"
         id="g1863">
        <path
           style="fill:#ffffff"
           class="st2"
           d="m 50.1,36.2 c -9.9,0 -16.2,7.1 -16.2,16 0,9 5.5,15.5 15.5,15.5 3,0 6.2,-0.5 9.5,-2.3 -0.8,-1.3 -1.3,-2.8 -1.3,-4.5 -2.2,1.3 -4.5,2.1 -7.5,2.1 -6.3,0 -10.2,-4.5 -10.2,-10.9 0,-6 3.6,-11.1 10.4,-11.1 3,0 5.5,0.7 7.9,2 v -5.2 c -1.9,-0.9 -4.7,-1.6 -8.1,-1.6"
           id="path1845" />
        <path
           style="fill:#ffffff"
           class="st2"
           d="m 125.8,34 h -5.5 v 31.9 c 1.9,1 4.4,1.5 7.2,1.5 7.5,0 13.2,-4.5 13.2,-12.2 0,-7 -4.7,-10.9 -10.6,-10.9 -1.7,0 -3,0.3 -4.3,0.7 z m 2.6,28.8 c -0.8,0 -1.7,-0.1 -2.6,-0.4 V 49.7 c 0.7,-0.3 1.7,-0.7 3.4,-0.7 3.6,0 5.8,2.7 5.8,6.6 -0.1,4.3 -2.6,7.2 -6.6,7.2"
           id="path1847" />
        <path
           style="fill:#ffffff"
           class="st2"
           d="m 190.8,34.2 h -5.6 v 10.7 c -0.9,-0.2 -2.1,-0.3 -3,-0.3 -7,0 -12.1,4.8 -12.1,11.8 0,7.3 5.4,11.3 12.5,11.3 2.7,0 5.9,-0.6 8.1,-1.6 V 34.2 Z m -8.2,28.9 c -4,0 -6.8,-2.5 -6.8,-6.8 0,-4.5 2.8,-7.1 6.7,-7.1 1.1,0 1.8,0.1 2.7,0.3 v 13.2 c -0.7,0.3 -1.8,0.4 -2.6,0.4"
           id="path1849" />
        <path
           style="fill:#ffffff"
           class="st2"
           d="m 225.6,44.6 c -6.3,0 -9.9,5 -9.9,11.6 0,6 3.3,11.5 11.3,11.5 2.7,0 5.5,-0.6 7.8,-2.1 l -1.7,-3.8 c -1.6,0.9 -3.4,1.5 -5.5,1.5 -3.7,0 -6.1,-2.2 -6.2,-5.6 h 14.1 v -1.3 c -0.1,-7.3 -3.7,-11.8 -9.9,-11.8 m -4.4,9.3 c 0,-2.7 1.5,-5 4.3,-5 2.9,0 4.2,2.5 4.2,5 z"
           id="path1851" />
        <path
           style="fill:#ffffff"
           class="st2"
           d="m 69.6,44.6 c -3.1,0 -5.9,0.7 -8.5,2.2 l 1.8,3.6 c 1.6,-0.8 3.6,-1.5 5.8,-1.5 2.6,0 4.2,1.1 4.2,3.7 v 0.7 l -3.8,0.1 c -2.2,0.1 -4.1,0.5 -5.7,1.3 -2.3,1.2 -3.7,3 -3.7,6 0,4.2 3.1,7 7.3,7 2.7,0 4.8,-1.1 6.3,-2.6 h 0.5 c 0.5,0.6 1.1,1 1.5,1.2 l 2.9,1.4 0.1,0.1 0.1,-0.1 V 52.6 c 0.1,-5.3 -2.9,-8 -8.8,-8 m -1,18.7 c -2,0 -3.3,-1.1 -3.3,-3 0,-1.1 0.4,-2 1.4,-2.5 0.7,-0.4 1.8,-0.7 3.2,-0.7 L 72.8,57 v 4.6 0.2 c -0.8,0.6 -2.2,1.5 -4.2,1.5"
           id="path1853" />
        <path
           style="fill:#ffffff"
           class="st2"
           d="m 82.7,44.2 -0.1,0.1 v 3.4 19.6 h 5.5 V 56.8 51.6 c 1.6,-1.3 3.5,-2.2 5.3,-2.2 2.8,0 3.3,2.1 3.3,4.7 v 13 h 5.6 V 52.4 51.6 c 1.6,-1.3 3.4,-2.2 5.2,-2.2 2.8,0 3.4,2.1 3.4,4.7 v 13.1 h 5.5 V 52.5 c 0,-5.8 -3.4,-8 -7.3,-8 -2.5,0 -5.3,1.2 -7.9,3.4 -1.1,-2.2 -3.2,-3.4 -5.9,-3.4 -2.7,0 -5.2,1.3 -7.4,3 h -0.2 c -0.6,-1.2 -1.5,-1.7 -2,-2 l -2.8,-1.4 z"
           id="path1855" />
        <path
           style="fill:#ffffff"
           class="st2"
           d="m 155.3,44.7 c -2.5,0 -4.7,1.4 -6.1,2.9 l -0.6,-2.5 h -4.7 v 22 h 5.5 V 51.7 c 1.7,-2.1 3.4,-2.7 4.8,-2.7 2,0 3.4,1.3 3.4,1.3 v -5.1 c -0.7,-0.3 -1.5,-0.5 -2.3,-0.5"
           id="path1857" />
        <path
           style="fill:#ffffff"
           class="st2"
           d="m 163.8,34.9 c -2,0 -3.4,1.5 -3.4,3.4 0,1.9 1.4,3.3 3.4,3.3 2,0 3.4,-1.5 3.4,-3.3 0.1,-1.9 -1.4,-3.4 -3.4,-3.4 m 2.8,10.3 H 161 v 22 h 5.6 z"
           id="path1859" />
        <path
           style="fill:#ffffff"
           class="st2"
           d="m 215.5,43.8 h -4.2 -4.4 -0.1 v 0 h -3.4 c -6,0 -9,4.1 -9,8.1 0,2.9 1.4,5.5 3.7,6.8 -1.8,1.3 -2.7,2.8 -2.7,4.1 0,1.2 0.5,2.2 1.4,2.7 -2.3,1 -4,2.9 -4,5.3 0,3.8 3.8,6.5 10.3,6.5 7.6,0 11.6,-3.3 11.6,-7.3 0,-8.2 -14.5,-4.6 -14.5,-8.5 0,-0.5 0.1,-0.9 0.6,-1.6 0.7,0.2 1.7,0.4 2.7,0.4 5.4,0 9.1,-3.2 9.1,-8.2 0,-1.7 -0.5,-3.4 -1.6,-4.7 h 0.6 c 1.8,-0.1 2.4,-1.2 2.7,-1.7 l 1,-1.9 v 0 z m -11.9,12.4 c -2.5,0 -3.9,-1.9 -3.9,-4.1 0,-2.7 1.6,-4.1 3.8,-4.1 2.5,0 4,2 4,4.1 0,2.7 -1.7,4.1 -3.9,4.1 m 0.4,17.3 c -3.7,0 -6,-1.3 -6,-3.5 0,-1.4 1.1,-2.4 1.8,-2.9 3,1.2 9.8,0.5 9.8,3.7 -0.1,1.6 -2.3,2.7 -5.6,2.7"
           id="path1861" />
      </g>
    </g>
  </g>
</svg>
